<svg xmlns="http://www.w3.org/2000/svg" viewBox="0 0 446.26 186.13"><defs><style>.cls-1{fill:#fff}</style><linearGradient id="linear-gradient" x1="257.66" y1="37.57" x2="446.26" y2="37.57" gradientUnits="userSpaceOnUse"><stop offset=".03" stop-color="#59b955"/><stop offset=".98" stop-color="#16bcef"/></linearGradient></defs><g id="Layer_2" data-name="Layer 2"><g id="red"><path class="cls-1" d="M0 54h11.22v6.82A5.71 5.71 0 0 0 13 65.31a7.45 7.45 0 0 0 5 1.55q3.6 0 5-1.88t1.42-7.05V18.61h11.6v39.86a35.41 35.41 0 0 1-.63 7.87 12 12 0 0 1-2.09 4.42 13.92 13.92 0 0 1-6.08 4.33 25.08 25.08 0 0 1-9.08 1.49 25.23 25.23 0 0 1-8.46-1.3 15.46 15.46 0 0 1-6.08-3.87A12 12 0 0 1 .82 66.8 30.26 30.26 0 0 1 0 58.39zM72 62.38h11.14a17.81 17.81 0 0 1-6.8 10.32 20.55 20.55 0 0 1-12.47 3.73q-9 0-14.32-6.07t-5.28-16.45q0-10.21 5.21-16.12t14.24-5.9q9.57 0 14.78 5.81t5.21 16.52V56a10 10 0 0 1-.09 1.13H55.79q.24 4.9 2.4 7.39A7.78 7.78 0 0 0 64.41 67a8.88 8.88 0 0 0 4.71-1.13A7.58 7.58 0 0 0 72 62.38zM55.79 49.82h16.39c-.1-2.81-.84-5-2.24-6.42a7.84 7.84 0 0 0-6-2.2 7.47 7.47 0 0 0-5.72 2.22 10.24 10.24 0 0 0-2.43 6.4zM98.53 75L86.74 33.39H98l6.82 28.83 5.74-28.83H122l6 28.83 6.81-28.83h10.8L134 75h-11.19l-6.66-29.79L109.71 75zM176.73 62.38h11.1A17.8 17.8 0 0 1 181 72.7a20.57 20.57 0 0 1-12.47 3.73q-9 0-14.32-6.07T149 53.91q0-10.21 5.21-16.12t14.25-5.9q9.57 0 14.78 5.81t5.21 16.52V56a9.89 9.89 0 0 1-.1 1.13h-27.8q.22 4.9 2.39 7.39a7.82 7.82 0 0 0 6.17 2.48 8.93 8.93 0 0 0 4.71-1.13 7.7 7.7 0 0 0 2.91-3.49zm-16.24-12.56h16.39a9.52 9.52 0 0 0-2.24-6.42 7.85 7.85 0 0 0-6-2.2 7.48 7.48 0 0 0-5.73 2.22 10.3 10.3 0 0 0-2.42 6.4zM196.14 75V18.61h11.15V75zM11.78 149.06v20.06H.18v-56.4h25.08q8.88 0 13.46 4.61t4.58 13.54q0 8.73-4.48 13.46T26 149.06zm.08-10.23h11.22q4.56 0 6.62-1.93t2.07-6.22c0-2.68-.67-4.71-2-6.09s-3.37-2.07-6-2.07H11.86zM73.28 164a13.7 13.7 0 0 1-5.51 5 17.47 17.47 0 0 1-7.93 1.71q-6 0-9.32-3.45t-3.28-9.8q0-5.9 3.28-9t10.82-4.25c1.14-.18 2.65-.38 4.51-.61 4.73-.62 7.09-2 7.09-4.1a4.08 4.08 0 0 0-1.57-3.62q-1.58-1.09-5.25-1.09A8.58 8.58 0 0 0 61 136a4.48 4.48 0 0 0-1.8 3.83v.61H48.74v-.76a12.22 12.22 0 0 1 4.52-10.06Q57.78 126 65.74 126q8.73 0 13.38 3a9.81 9.81 0 0 1 4.66 8.73v23.67a10.57 10.57 0 0 0 .53 3.88 3.78 3.78 0 0 0 1.8 1.94v1.87h-11.6a9.53 9.53 0 0 1-.88-2.37 13.66 13.66 0 0 1-.35-2.72zm-.19-15.31a29.88 29.88 0 0 1-6.26 2l-3.66.8a9 9 0 0 0-4.11 2.11 4.92 4.92 0 0 0-1.17 3.48 4.73 4.73 0 0 0 1.49 3.66 5.74 5.74 0 0 0 4 1.36 9.69 9.69 0 0 0 7.11-2.55 9.3 9.3 0 0 0 2.58-6.95zM95.15 185.82v-9q.54.08 1.11.12h1.49a6.92 6.92 0 0 0 4.94-1.56 6.07 6.07 0 0 0 1.65-4.65 2.85 2.85 0 0 0-.08-.57c-.05-.23-.1-.42-.15-.58l-15-42.12h12.25l8.77 30 8.54-30h11.72l-17.12 49.09q-1.91 5.52-4.78 7.53t-8.62 2c-.69 0-1.43 0-2.22-.08s-1.65-.08-2.5-.18zM135.63 169.12V127.5h10.57v4.6a16.05 16.05 0 0 1 5.2-4.33 13.9 13.9 0 0 1 6.36-1.46 14.19 14.19 0 0 1 6.74 1.48 13.24 13.24 0 0 1 4.86 4.65 13.86 13.86 0 0 1 11.84-6.13q6.27 0 10 3.68t3.68 10v29.1h-11v-26.8a6.4 6.4 0 0 0-1.63-4.69 6.05 6.05 0 0 0-4.54-1.67 6.61 6.61 0 0 0-5.17 2.13 8.36 8.36 0 0 0-1.91 5.8v25.23h-10.92V142.4a6.64 6.64 0 0 0-1.59-4.75 5.8 5.8 0 0 0-4.46-1.69 6.53 6.53 0 0 0-5.15 2.15 8.55 8.55 0 0 0-1.89 5.86v25.15zM230.06 156.49h11.1a17.75 17.75 0 0 1-6.79 10.32 20.57 20.57 0 0 1-12.47 3.73q-9 0-14.32-6.07T202.3 148q0-10.22 5.2-16.12t14.25-5.88q9.57 0 14.78 5.8t5.21 16.52v1.78a9.89 9.89 0 0 1-.1 1.13h-27.8c.16 3.27 1 5.73 2.4 7.39a7.78 7.78 0 0 0 6.22 2.49 8.83 8.83 0 0 0 4.71-1.13 7.7 7.7 0 0 0 2.89-3.49zm-16.24-12.56h16.39a9.52 9.52 0 0 0-2.24-6.42 7.89 7.89 0 0 0-6-2.2 7.49 7.49 0 0 0-5.73 2.22 10.32 10.32 0 0 0-2.42 6.4zM249.09 169.12V127.5H260v4.94a15.2 15.2 0 0 1 5.52-4.54 16.25 16.25 0 0 1 7.08-1.51q6.9 0 10.32 3.58t3.43 10.78v28.37h-11.14V144c0-3-.51-5.12-1.51-6.4s-2.65-1.91-4.93-1.91a8.32 8.32 0 0 0-6.24 2.35 8.8 8.8 0 0 0-2.29 6.42v24.69zM314.42 169.43c-1 0-2.24.07-3.66.14s-2.31.09-2.7.09q-6.39 0-8.75-2.39c-1.57-1.6-2.35-4.74-2.35-9.44v-22.52h-5.52v-7.81H297v-11.37h11v11.37h6.43v7.81H308v23.05a2.54 2.54 0 0 0 .73 2.17 5.78 5.78 0 0 0 3 .51h2.72zM346.51 156.49h11.11a17.81 17.81 0 0 1-6.8 10.32 20.55 20.55 0 0 1-12.47 3.73q-9 0-14.32-6.07T318.75 148q0-10.22 5.21-16.12T338.2 126q9.57 0 14.78 5.8t5.21 16.52v1.78a10 10 0 0 1-.09 1.13h-27.83q.24 4.9 2.4 7.39a7.78 7.78 0 0 0 6.22 2.49 8.79 8.79 0 0 0 4.71-1.11 7.58 7.58 0 0 0 2.91-3.51zm-16.24-12.56h16.4c-.11-2.81-.85-5-2.25-6.42a7.87 7.87 0 0 0-6-2.2 7.47 7.47 0 0 0-5.72 2.22 10.33 10.33 0 0 0-2.43 6.4zM390.7 153.42h11q-.69 7.94-5.78 12.53t-13.1 4.59q-9.07 0-14.22-5.91t-5.15-16.37q0-10.42 5.26-16.34T383.2 126c5.38 0 9.71 1.43 13 4.28s5.07 6.85 5.46 12h-11.11a8.29 8.29 0 0 0-2.34-5.09 6.93 6.93 0 0 0-4.94-1.76 6.82 6.82 0 0 0-6.18 3.25q-2.05 3.26-2 9.77 0 6 2.13 9.25a6.87 6.87 0 0 0 6.1 3.23 6.73 6.73 0 0 0 5-1.87 9.81 9.81 0 0 0 2.38-5.64zM409 169.12v-56.4h11v19.38a14.67 14.67 0 0 1 5.38-4.28 16.64 16.64 0 0 1 7-1.43 16.83 16.83 0 0 1 6.64 1.26 12 12 0 0 1 4.81 3.6 9.5 9.5 0 0 1 1.78 3.6 29.49 29.49 0 0 1 .51 6.51v27.76h-11.03v-21.78c0-5.16-.48-8.4-1.42-9.71s-2.64-2-5.09-2a8.31 8.31 0 0 0-6.24 2.35 8.77 8.77 0 0 0-2.3 6.42v24.69z"/><path fill="url(#linear-gradient)" d="M446.26 0v37.57h-37.33v37.57H257.67V37.57h37.34V0h151.25z"/></g></g></svg>
