<svg xmlns="http://www.w3.org/2000/svg" width="718" height="598"><g fill="none" fill-rule="evenodd"><path fill="#000" d="M.315.059h717.131v597.61H.315z"/><path fill="#FFF" fill-rule="nonzero" d="M49.2 176.223a58.494 58.494 0 0 0 22.78 13.745 89.474 89.474 0 0 0 49.482 1.41 53.498 53.498 0 0 0 17.761-7.84v-43.602H115.32v26.295c-4.6.89-9.275 1.33-13.96 1.315a40.255 40.255 0 0 1-17.88-3.825 37.386 37.386 0 0 1-13.292-10.733 49.147 49.147 0 0 1-8.27-16.733 76.231 76.231 0 0 1-2.845-21.514 80.127 80.127 0 0 1 3.06-23.426 46.996 46.996 0 0 1 8.581-16.35 34.135 34.135 0 0 1 12.765-9.563 39.442 39.442 0 0 1 15.705-3.25 88.757 88.757 0 0 1 13.96 1.099v24.86h23.905V42.694a76.494 76.494 0 0 0-14.94-5.02 95.618 95.618 0 0 0-22.04-2.151 83.665 83.665 0 0 0-25.291 4.04 63.538 63.538 0 0 0-23.33 13.29A68.869 68.869 0 0 0 34.33 77.26c-4.43 10.12-6.646 22.653-6.646 37.602a101.809 101.809 0 0 0 5.88 36.74A67.578 67.578 0 0 0 49.2 176.224zm132.262 13.41a102.383 102.383 0 0 0 13.076 3.275 86.056 86.056 0 0 0 15.37 1.291 86.82 86.82 0 0 0 23.116-2.964 53.618 53.618 0 0 0 18.526-8.916 41.761 41.761 0 0 0 12.215-14.845 46.112 46.112 0 0 0 4.35-20.582 34.71 34.71 0 0 0-5.57-20.199 48.86 48.86 0 0 0-13.72-13.41 94.279 94.279 0 0 0-17.952-9.108 258.09 258.09 0 0 1-17.857-7.41 61.721 61.721 0 0 1-13.673-8.319 14.582 14.582 0 0 1-5.546-11.785 12.884 12.884 0 0 1 6-11.067 28.685 28.685 0 0 1 16.47-4.136c3.678.008 7.352.263 10.996.765a77.641 77.641 0 0 1 10.35 2.08c.425.139.869.212 1.315.215v24.191h23.905V44.462a70.446 70.446 0 0 0-20.486-6.55 142.112 142.112 0 0 0-26.152-2.39 66.167 66.167 0 0 0-21.37 3.275 49.458 49.458 0 0 0-16.447 9.155 41.044 41.044 0 0 0-10.685 14.056 41.809 41.809 0 0 0-3.753 17.976 36.167 36.167 0 0 0 5.57 20.94 49.1 49.1 0 0 0 13.721 13.387 84.765 84.765 0 0 0 17.88 8.844c6.455 2.359 12.391 4.678 17.81 6.957a56.343 56.343 0 0 1 13.72 8.08 14.797 14.797 0 0 1 5.57 11.951 15.49 15.49 0 0 1-6.765 13.196c-4.494 3.275-10.828 4.78-18.956 4.78a54.837 54.837 0 0 1-12.693-1.266 65.904 65.904 0 0 1-10.996-3.586l-1.315-.454v-21.514h-23.904v40.637a192.101 192.101 0 0 0 7.41 3.705 90.478 90.478 0 0 0 10.47 3.992zm130.805 0c4.281 1.381 8.65 2.475 13.076 3.275a85.554 85.554 0 0 0 15.37 1.291 86.773 86.773 0 0 0 23.092-2.964 53.426 53.426 0 0 0 18.526-8.916 41.761 41.761 0 0 0 12.215-14.845 46.112 46.112 0 0 0 4.35-20.582 34.876 34.876 0 0 0-5.474-20.199 49.267 49.267 0 0 0-13.745-13.41 94.78 94.78 0 0 0-17.856-9.06c-6.47-2.454-12.43-4.924-17.88-7.41a61.721 61.721 0 0 1-13.817-8.367 14.582 14.582 0 0 1-5.546-11.785 12.86 12.86 0 0 1 6-11.115 28.685 28.685 0 0 1 16.446-4.136 81.49 81.49 0 0 1 10.996.765 78.024 78.024 0 0 1 10.374 2.08c.416.141.852.214 1.291.215v24.24h23.905V44.461a70.183 70.183 0 0 0-20.486-6.55 141.92 141.92 0 0 0-26.152-2.39 66.167 66.167 0 0 0-21.37 3.275 49.458 49.458 0 0 0-16.447 9.155 41.044 41.044 0 0 0-10.685 14.056 42.143 42.143 0 0 0-3.825 17.976 36.167 36.167 0 0 0 5.57 20.94 49.41 49.41 0 0 0 13.721 13.387 86.056 86.056 0 0 0 17.88 8.844c6.47 2.311 12.431 4.63 17.881 6.957a56.51 56.51 0 0 1 13.745 8.08 14.845 14.845 0 0 1 5.546 11.951 15.442 15.442 0 0 1-6.621 13.22c-4.494 3.274-10.83 4.78-18.957 4.78a54.622 54.622 0 0 1-12.74-1.41 65.474 65.474 0 0 1-11.02-3.586l-1.315-.454V141.18H294.41v40.638c1.889 1.004 4.375 2.247 7.41 3.705a89.307 89.307 0 0 0 10.447 4.111z"/><path fill="#FC4A4A" fill-rule="nonzero" d="M88.14 265.1h-.861L61.27 223.052H31.127v151.72h28.184v-83.234L58.02 270.31h1.076l25.362 39.657h5.187l24.287-39.657h1.291l-1.076 23.617v80.845h29.69V223.052h-29.905L88.14 265.1zm83.713-15.61h38.366v98.845h-38.366v26.438H278.49v-26.438h-38.582V249.49h38.582v-26.438H171.853v26.438zm213.729 125.283h25.984V223.052h-28.16v74.558l1.937 18.215h-1.076l-52.446-92.773h-26.008v151.72h28.16v-71.736l-1.292-18h1.076l51.825 89.737zm97.697 3.036c7.753.059 15.48-.922 22.972-2.917a53.737 53.737 0 0 0 18.43-8.892 41.618 41.618 0 0 0 12.168-14.606 46.064 46.064 0 0 0 4.326-20.486 34.78 34.78 0 0 0-5.522-20.175 49.004 49.004 0 0 0-13.673-13.315 93.06 93.06 0 0 0-17.76-9.012c-6.375-2.438-12.304-4.892-17.786-7.362a61.458 61.458 0 0 1-13.65-8.247 14.343 14.343 0 0 1-5.521-11.69 12.837 12.837 0 0 1 5.952-11.067 28.685 28.685 0 0 1 16.375-4.112c3.662.008 7.32.263 10.948.765a82.661 82.661 0 0 1 10.303 2.056c.415.141.851.214 1.29.215v24.072h23.905v-44.128a69.633 69.633 0 0 0-20.462-6.597 142.637 142.637 0 0 0-26.008-2.39 66.072 66.072 0 0 0-21.251 3.25 49.315 49.315 0 0 0-16.35 9.108 40.924 40.924 0 0 0-10.734 14.08 42.048 42.048 0 0 0-3.777 17.88 35.857 35.857 0 0 0 5.522 20.797 48.67 48.67 0 0 0 13.65 13.339 84.359 84.359 0 0 0 17.784 8.772c6.375 2.311 12.295 4.622 17.761 6.933a56.367 56.367 0 0 1 13.674 8.032 14.701 14.701 0 0 1 5.522 11.952 15.37 15.37 0 0 1-6.718 13.1c-4.494 3.187-10.78 4.78-18.86 4.78a54.215 54.215 0 0 1-12.693-1.41 65.33 65.33 0 0 1-10.949-3.562l-1.29-.454v-21.514h-23.905v40.303c1.865 1.028 4.327 2.247 7.363 3.705a92.319 92.319 0 0 0 10.518 4.112 100.398 100.398 0 0 0 13.004 3.25 84.67 84.67 0 0 0 15.442 1.435zm114.048-66.311h15.394l37.291 63.275h36.621l-48.12-78.454 42.694-73.267h-33.8l-34.686 61.984h-15.394v-61.984h-29.69v151.72h29.69v-63.274z"/><path fill="#FFF" fill-rule="nonzero" d="M460.57 436.016h61.267v70.757c0 9.864-2.55 17.57-7.65 23.115a23.235 23.235 0 0 1-9.681 6.192 32.773 32.773 0 0 1-10.375 1.864 55.96 55.96 0 0 1-13.84-1.53 57.849 57.849 0 0 1-14.343-6.31l-10.685 23.904a68.892 68.892 0 0 0 19.625 8.175 88.71 88.71 0 0 0 20.271 2.271c2.176 0 4.949 0 8.295-.43a60.598 60.598 0 0 0 10.662-1.96 59.618 59.618 0 0 0 11.665-4.566 44.438 44.438 0 0 0 11.235-8.295 45.92 45.92 0 0 0 11.45-19.386 83.665 83.665 0 0 0 3.156-23.33v-97.053H460.57v26.582zm206.773 48.072a92.845 92.845 0 0 0-17.88-9.036c-6.455-2.39-12.431-4.948-17.857-7.41a61.745 61.745 0 0 1-13.745-8.295 14.558 14.558 0 0 1-5.57-11.761 12.86 12.86 0 0 1 6-11.116 28.518 28.518 0 0 1 16.47-4.16c3.678.008 7.352.264 10.996.766 3.49.48 6.946 1.175 10.35 2.08.425.139.869.211 1.315.215v24.19h23.905v-44.246a70.494 70.494 0 0 0-20.415-6.55 142.112 142.112 0 0 0-26.055-2.39 66.167 66.167 0 0 0-21.37 3.274 49.22 49.22 0 0 0-16.447 9.156 41.044 41.044 0 0 0-10.685 14.056 41.833 41.833 0 0 0-3.825 18 36.143 36.143 0 0 0 5.57 20.916 49.195 49.195 0 0 0 13.72 13.41 84.693 84.693 0 0 0 17.881 8.821c6.454 2.39 12.43 4.78 17.88 6.98a56.319 56.319 0 0 1 13.722 8.056 14.82 14.82 0 0 1 5.57 11.952 15.538 15.538 0 0 1-6.765 13.195c-4.494 3.251-10.83 4.781-18.957 4.781a54.67 54.67 0 0 1-12.765-1.434 63.777 63.777 0 0 1-10.996-3.586l-1.314-.43v-21.514H582.17v40.637c1.889 1.028 4.35 2.271 7.41 3.706a86.438 86.438 0 0 0 10.566 4.135 98.534 98.534 0 0 0 13.076 3.275 85.865 85.865 0 0 0 15.37 1.315 86.82 86.82 0 0 0 23.116-2.94 53.665 53.665 0 0 0 18.526-8.94 41.665 41.665 0 0 0 12.215-14.821 46.207 46.207 0 0 0 4.35-20.606 34.71 34.71 0 0 0-5.569-20.271 48.86 48.86 0 0 0-13.888-13.41zM414.405 50.18l16.7-16.7 16.7 16.7-16.7 16.7zM29.709 452.914l16.7-16.7 16.7 16.7-16.7 16.7zM133.864 419.57l16.7-16.7 16.7 16.7-16.7 16.7zM131.808 552.695l16.7-16.7 16.7 16.7-16.7 16.7zM98.448 518.874l16.7-16.7 16.7 16.7-16.7 16.7zM265.1 419.567l16.7-16.7 16.7 16.7-16.7 16.7zM232.499 452.906l16.7-16.7 16.7 16.7-16.7 16.7zM199.132 419.583l16.7-16.7 16.7 16.7-16.7 16.7zM265.108 552.008l16.7-16.7 16.7 16.7-16.7 16.7z"/><path fill="#FFF" fill-rule="nonzero" d="M182.323 435.873l-49.65 49.673 49.65 49.65 49.673-49.65-49.673-49.673zm-16.733 49.673l16.733-16.733 16.733 16.733-16.733 16.733-16.733-16.733zm200.51.239l33.25-33.251-49.673-49.65-49.673 49.65 33.251 33.25-33.251 33.252 49.673 49.673 49.674-49.673-33.251-33.251zm-33.108-33.251l16.733-16.733 16.733 16.733-16.733 16.733-16.733-16.733zm0 66.502l16.733-16.733 16.733 16.733-16.733 16.733-16.733-16.733zm-201.681-65.952l-50.176-50.2-16.709 16.686 33.514 33.49-66.143 65.976 49.673 49.673L98.155 552l-32.892-32.869 66.048-66.047zM199.66 552l82.638-82.64 16.7 16.701-82.639 82.639zM651.185 83.481l16.7-16.7 16.7 16.7-16.7 16.7zM651.211 150.151l16.7-16.7 16.7 16.7-16.7 16.7zM414.404 117.515l16.7-16.7 16.7 16.7-16.7 16.7zM551.203 116.134l16.7-16.7 16.7 16.7-16.7 16.7zM483.84 183.48l16.7-16.7 16.7 16.7-16.7 16.7z"/><path fill="#FFF" fill-rule="nonzero" d="M634.546 200.175l16.685-16.685-33.323-33.347 33.323-33.322v-.024l-33.323-33.299 33.323-33.323-16.685-16.685-33.323 33.299L567.9 33.466l-16.709 16.685 66.67 66.67-66.67 66.645 16.71 16.685 33.322-33.298 33.323 33.322zm-84-50.032l-50.008-50.008v.024l-.024-.024-50.008 50.008 16.71 16.71 33.322-33.323 33.323 33.323 16.685-16.71z"/><path fill="#FFF" fill-rule="nonzero" d="M467.215 100.183l33.323-33.322 33.323 33.322 16.685-16.685-50.008-50.008h-.024l-50.008 50.008zM414.393 183.483l16.7-16.7 16.7 16.7-16.7 16.7zM398.427 418.193l16.7-16.7 16.7 16.7-16.7 16.7zM398.441 485.546l16.7-16.7 16.7 16.7-16.7 16.7zM462.317 485.543l16.7-16.7 16.7 16.7-16.7 16.7zM398.411 551.995l16.7-16.7 16.7 16.7-16.7 16.7z"/></g></svg>
