<?xml version="1.0" standalone="no"?>
<!DOCTYPE svg PUBLIC "-//W3C//DTD SVG 20010904//EN"
 "http://www.w3.org/TR/2001/REC-SVG-20010904/DTD/svg10.dtd">
<svg version="1.0" xmlns="http://www.w3.org/2000/svg"
 width="395.000000pt" height="395.000000pt" viewBox="0 0 395.000000 395.000000"
 preserveAspectRatio="xMidYMid meet">
<metadata>
Created by potrace 1.11, written by Peter Selinger 2001-2013
</metadata>
<g transform="translate(0.000000,395.000000) scale(0.100000,-0.100000)"
fill="#000000" stroke="none">
<path d="M1850 3940 c-262 -16 -485 -78 -749 -206 -177 -85 -342 -192 -449
-290 -214 -196 -447 -529 -492 -704 -6 -25 -24 -70 -40 -101 -36 -67 -74 -208
-94 -340 -51 -339 -15 -723 91 -959 14 -30 40 -100 60 -155 73 -211 197 -397
385 -581 176 -172 343 -286 603 -414 131 -65 259 -110 393 -141 103 -23 436
-44 562 -35 376 27 929 261 1147 486 35 36 109 112 166 170 59 61 131 147 169
205 134 202 248 482 304 750 25 116 28 149 27 315 -3 443 -102 812 -288 1070
-30 41 -80 112 -110 158 -79 118 -190 230 -341 343 -476 358 -804 463 -1344
429z m242 -109 l36 -11 -54 -87 c-30 -48 -57 -97 -60 -108 -4 -18 -24 -25
-132 -49 -220 -48 -515 -159 -646 -243 -29 -18 -32 -18 -120 0 -50 10 -147 21
-215 25 l-123 7 46 62 c52 71 102 111 232 183 191 106 474 202 675 229 90 12
310 7 361 -8z m327 -51 c54 -11 154 -38 223 -60 133 -42 260 -112 430 -235
111 -80 266 -236 302 -304 25 -47 28 -60 23 -110 -5 -45 -42 -188 -51 -199 -2
-1 -32 11 -67 27 -147 66 -377 125 -542 137 l-86 7 -53 70 c-110 148 -302 330
-446 423 l-60 39 40 79 c23 43 56 93 73 112 39 41 71 43 214 14z m-1362 -531
c32 -6 66 -12 76 -15 16 -5 17 -25 17 -240 0 -130 5 -289 11 -355 l11 -120
-67 -70 c-89 -95 -204 -240 -337 -429 -61 -85 -114 -158 -117 -163 -11 -11
-223 45 -314 83 -42 17 -82 40 -87 50 -47 87 -53 491 -10 650 20 72 231 385
337 500 73 79 120 111 178 122 49 8 223 1 302 -13z m1788 -315 c142 -24 411
-113 482 -159 27 -18 140 -247 182 -369 42 -119 81 -275 88 -350 5 -52 1 -72
-22 -131 -71 -178 -176 -353 -300 -498 l-66 -78 -72 6 c-162 13 -350 39 -480
65 -76 16 -140 30 -142 32 -2 1 -26 71 -54 155 -28 83 -98 276 -156 429 -58
153 -104 284 -103 290 2 7 102 152 223 323 l220 311 60 -6 c33 -3 96 -12 140
-20z m-1170 -573 l430 -78 108 -284 c59 -156 130 -351 158 -432 l50 -148 -103
-117 c-57 -64 -183 -199 -282 -300 l-179 -182 -67 0 c-125 0 -385 56 -634 137
l-119 38 -63 120 c-77 145 -146 319 -209 519 l-46 149 37 56 c122 185 301 418
403 524 41 42 77 77 80 77 3 0 199 -36 436 -79z m-1529 -336 c16 -69 15 -73
-8 -150 l-25 -80 -7 104 c-4 56 -4 146 0 200 8 95 8 95 16 46 5 -27 16 -82 24
-120z m3633 -100 c30 -10 37 -18 44 -51 30 -136 -66 -511 -196 -770 -89 -176
-252 -374 -341 -415 -23 -10 -58 -19 -80 -19 -32 0 -37 3 -33 17 66 200 87
304 94 462 l6 134 77 92 c134 159 257 362 311 513 22 62 23 63 53 56 16 -4 46
-12 65 -19z m-2703 -1046 c210 -73 523 -145 676 -156 l89 -6 51 -66 c28 -36
116 -131 194 -210 137 -137 143 -145 127 -163 -30 -34 -127 -92 -218 -131 -88
-38 -92 -39 -175 -32 -346 27 -715 172 -900 355 -69 68 -170 192 -170 209 0
11 252 221 265 221 1 0 28 -9 61 -21z m2104 -340 c-146 -126 -471 -285 -737
-359 -100 -28 -264 -62 -271 -56 -1 2 16 15 39 31 23 15 60 44 83 65 33 30 54
41 101 49 227 41 493 148 660 265 42 30 58 35 105 35 l55 0 -35 -30z"/>
</g>
</svg>
