<svg xmlns="http://www.w3.org/2000/svg" fill="none" viewBox="0 0 1098 642"><path fill="#fff" fill-rule="evenodd" stroke="#1D877A" stroke-linecap="square" stroke-width="9" d="M868.918 319.587c3.221-3.44-24.12-76.734-39.695-82.114-15.575-5.38-554.565-5.38-560.382 0-2.819 2.607 10.506 20.447 21.557 39.712 11.758 20.495 17.82 42.402 20.398 42.402 5 0 554.902 3.44 558.122 0Z" clip-rule="evenodd"/><path stroke="#000" stroke-linecap="round" stroke-width="15" d="M880.232 453.595s29.73-10.789 36.39-32.964c6.66-22.175 0-65.684 0-65.684M552.863 559.205s-20.992 13.221-26.992 24.897c-6 11.676-3.863 38.974-3.863 38.974l-29.935 11.049M610.594 559.205s20.993 13.221 26.993 24.897c5.999 11.676 3.863 38.974 3.863 38.974l29.934 11.049"/><path fill="#fff" stroke="#1D877A" stroke-width="9" d="m307.601 319.87.007-.002a.105.105 0 0 0-.007.002Zm1.285-.262c1.086-.174 2.633-.354 4.665-.534 4.373-.388 10.641-.744 18.576-1.067 15.852-.645 38.13-1.148 64.713-1.524 53.153-.749 123.389-.985 193.558-.826 70.167.159 140.245.714 193.081 1.543 26.423.415 48.511.899 64.137 1.435 7.82.269 13.98.549 18.243.838 1.574.107 2.852.212 3.841.314l.074.461c.303 1.941.624 4.738.953 8.323.654 7.149 1.314 17.155 1.929 29.12 1.231 23.916 2.279 55.494 2.773 87.331.494 31.847.432 63.887-.549 88.745-.492 12.442-1.21 22.994-2.189 30.791-.491 3.908-1.034 7.012-1.613 9.269-.289 1.129-.565 1.955-.807 2.523a7.196 7.196 0 0 1-.116.258c-.196.068-.455.15-.789.241-1.158.316-2.846.655-5.103 1.001-4.494.688-10.824 1.34-18.792 1.948-15.911 1.216-38.023 2.232-64.316 3.047-52.568 1.629-121.648 2.444-190.826 2.444-69.177 0-138.408-.815-191.277-2.444-26.443-.815-48.744-1.832-64.883-3.047-8.08-.609-14.538-1.261-19.171-1.951-2.324-.346-4.095-.688-5.341-1.012a11.788 11.788 0 0 1-1.205-.369c-.173-.285-.616-1.085-1.159-2.831-.686-2.201-1.34-5.245-1.941-9.104-1.198-7.698-2.108-18.132-2.757-30.464-1.295-24.634-1.527-56.415-1.046-88.09.481-31.666 1.672-63.144 3.21-87.154.77-12.014 1.623-22.101 2.51-29.386.444-3.655.888-6.517 1.314-8.532.108-.509.21-.939.303-1.297Zm-.69 256.749.015.008-.015-.008Zm1.052-257.891a.513.513 0 0 1 0 0Z"/><path stroke="#000" stroke-linecap="round" stroke-width="12" d="M544.406 491.512s28.296 18.191 43.398 18.191c15.102 0 43.398-18.191 43.398-18.191M537.203 424.765v17.618M637.074 424.765v17.618"/><path fill="#fff" fill-rule="evenodd" stroke="#1D877A" stroke-linecap="square" stroke-width="9" d="M266.593 238.146c-8.553 3.678 0 271.419 0 271.419s37.554 69.65 41.375 64.076c3.822-5.574 0-47.515 0-118.133 0-70.617 3.694-135.257 3.694-135.257s-36.516-85.783-45.069-82.105Z" clip-rule="evenodd"/><path stroke="#1D877A" stroke-linecap="square" stroke-width="9" d="M293.86 274.393h552.568"/><path stroke="#000" stroke-linecap="round" stroke-width="15" d="M279.159 441.425s-32.349-12.028-46.758-31.434c-14.41-19.407-17.939-61.486-17.939-61.486"/><g fill="#000" fill-rule="evenodd" clip-rule="evenodd"><path d="M1002.73 342.477c-1.67-1.725-2.3-3.772-1.9-6.141.4-2.368 1.64-4.182 3.72-5.442 2.32.607 4.05 1.419 5.18 2.436 1.13 1.016 1.8 2.09 2 3.222.2 1.132.05 2.223-.44 3.274a6.597 6.597 0 0 1-2.13 2.589 5.718 5.718 0 0 1-3.11 1.109c-1.14.064-2.25-.285-3.32-1.047Zm36.04-26.047c.83-2.207 2.12-3.724 3.88-4.553 1.75-.829 3.79-1.249 6.1-1.262 2.31-.012 4.79.282 7.45.881 2.65.6 5.29 1.251 7.9 1.952 2.62.701 5.09 1.316 7.42 1.843 2.33.528 4.34.766 6.05.716 1.71-.05 2.99-.552 3.85-1.506.85-.954 1.08-2.608.67-4.961-.32-1.549-1.27-3.189-2.85-4.92-1.57-1.731-3.4-3.4-5.47-5.006a61.663 61.663 0 0 0-6.4-4.359c-2.19-1.301-4.08-2.331-5.67-3.089-.67-1.571-1.15-2.799-1.44-3.686-.29-.887-.06-2.037.69-3.449 1.51-.81 3.57-.759 6.19.151 2.62.91 5.36 2.358 8.22 4.343 2.87 1.985 5.68 4.349 8.45 7.093 2.76 2.743 5.09 5.546 6.98 8.408 1.89 2.863 3.15 5.652 3.8 8.367.65 2.716.26 5.028-1.16 6.938-1.42 1.909-4.05 3.3-7.89 4.172-3.85.873-9.28.864-16.32-.026-3.13-.438-5.91-.985-8.34-1.64-2.42-.655-4.65-1.08-6.67-1.275-2.02-.196-3.95.014-5.79.629-1.85.614-3.76 1.972-5.73 4.073-1.24-.147-2.21-.599-2.91-1.354a6.62 6.62 0 0 1-1.5-2.648c-.31-1.009-.41-2.04-.31-3.093.1-1.054.37-1.967.8-2.739ZM76.43 311.669c1.438.487 2.994.345 4.668-.426 6.583-7.083 11.635-14.561 15.156-22.436 3.52-7.874 5.655-15.588 6.402-23.141.747-7.554.24-14.653-1.52-21.297s-4.661-12.277-8.702-16.9c-4.041-4.623-9.105-7.925-15.191-9.908-6.087-1.983-13.02-2.088-20.803-.317-7.782 1.771-16.34 5.651-25.671 11.64-9.333 5.989-19.267 14.736-29.802 26.24.73 4.012 1.73 6.644 3 7.896 1.27 1.253 2.662 1.661 4.176 1.226 1.515-.434 3.072-1.515 4.67-3.24a59.555 59.555 0 0 0 4.574-5.595c.79.567 1.578 1.196 2.366 1.887.788.69 1.893 1.709 3.315 3.057a664.538 664.538 0 0 0 5.538 5.171 952.594 952.594 0 0 0 8.993 8.185c3.725 3.357 8.298 7.466 13.719 12.328 5.42 4.862 11.948 10.621 19.584 17.275-.32.671-.305 1.594.043 2.769.35 1.175.991 2.278 1.927 3.309.935 1.032 2.121 1.791 3.559 2.277Zm-11.507-27.976a280.814 280.814 0 0 0 12.678 11.156c3.528-4.737 6.183-9.719 7.966-14.948 1.783-5.229 2.81-10.363 3.083-15.403.273-5.039-.182-9.8-1.365-14.28-1.183-4.481-2.992-8.357-5.426-11.629a24.282 24.282 0 0 0-9.188-7.543c-3.692-1.756-7.894-2.414-12.608-1.973-4.714.44-9.896 2.149-15.546 5.126-5.65 2.978-11.728 7.547-18.233 13.708a394.06 394.06 0 0 1 12.765 11.435c4.328 4.043 8.656 8.117 12.983 12.222 4.326 4.105 8.624 8.148 12.891 12.129ZM131.82 241.621c4.011.506 7.992-.16 11.943-1.997 5.525-3.921 9.564-8.01 12.116-12.267 2.552-4.258 3.956-8.549 4.213-12.874.257-4.326-.466-8.548-2.166-12.668-1.701-4.119-4.022-7.957-6.962-11.514-2.941-3.556-6.335-6.725-10.184-9.505-3.848-2.781-7.802-4.948-11.862-6.5-4.059-1.552-8.092-2.412-12.099-2.578-4.007-.167-7.597.535-10.772 2.106-3.175 1.571-5.778 4.163-7.81 7.779-2.032 3.615-3.134 8.431-3.306 14.448.048 3.397.712 7.069 1.993 11.016 1.28 3.947 3.068 7.857 5.361 11.729a63.924 63.924 0 0 0 8.046 10.797c3.071 3.326 6.418 6.036 10.039 8.129 3.622 2.093 7.438 3.393 11.45 3.899Zm-.553-14.971c3.419.754 6.886.204 10.402-1.65 2.57-2.62 4.011-5.678 4.324-9.175.313-3.496-.163-6.987-1.426-10.472-1.263-3.485-3.175-6.825-5.738-10.019-2.562-3.194-5.444-5.752-8.645-7.673-3.202-1.921-6.571-3.082-10.107-3.483-3.537-.402-6.9.4-10.091 2.405-1.707 1.417-2.603 3.629-2.689 6.638-.086 3.008.456 6.245 1.624 9.709 1.168 3.465 2.859 6.905 5.074 10.321 2.214 3.416 4.792 6.315 7.732 8.696 2.941 2.382 6.121 3.949 9.54 4.703ZM284.306 144.817c3.659 1.721 7.65 2.318 11.976 1.791 6.466-2.021 11.571-4.662 15.313-7.922 3.743-3.261 6.405-6.908 7.986-10.942 1.58-4.035 2.198-8.274 1.854-12.717-.345-4.444-1.366-8.811-3.063-13.102-1.698-4.291-3.947-8.353-6.748-12.187-2.801-3.834-5.892-7.116-9.273-9.847-3.381-2.731-6.951-4.795-10.71-6.191-3.759-1.397-7.391-1.839-10.896-1.326-3.505.513-6.782 2.174-9.832 4.985-3.049 2.81-5.585 7.05-7.608 12.72-1.004 3.245-1.507 6.942-1.509 11.092-.002 4.15.49 8.42 1.474 12.811a63.894 63.894 0 0 0 4.316 12.755c1.893 4.113 4.238 7.724 7.036 10.834 2.797 3.11 6.025 5.525 9.684 7.246Zm4.1-14.409c3.019 1.774 6.487 2.322 10.403 1.645 3.254-1.698 5.57-4.161 6.948-7.389 1.378-3.229 2.004-6.696 1.88-10.401-.124-3.705-.911-7.472-2.361-11.302-1.45-3.83-3.4-7.152-5.851-9.968-2.452-2.816-5.297-4.962-8.536-6.436-3.24-1.475-6.687-1.752-10.341-.83-2.061.819-3.597 2.646-4.608 5.48-1.011 2.836-1.497 6.081-1.456 9.737.04 3.656.586 7.45 1.636 11.384 1.05 3.933 2.606 7.486 4.667 10.66 2.061 3.173 4.6 5.647 7.619 7.42ZM229.608 217.218c-1.449-.688-2.426-1.919-2.931-3.694a12.714 12.714 0 0 1-.374-5.332c.255-1.78.885-3.251 1.891-4.413 1.007-1.162 2.216-1.439 3.63-.831 5.549 3.909 10.265 6.428 14.147 7.556 3.883 1.128 7.053 1.192 9.513.192 2.459-.999 4.264-2.826 5.414-5.481 1.151-2.655 1.77-5.811 1.856-9.467.086-3.657-.253-7.624-1.015-11.903a91.123 91.123 0 0 0-3.201-12.643c-1.372-4.15-3.017-8.06-4.936-11.728-1.919-3.669-3.895-6.717-5.928-9.144-.661 2.579-1.58 5.274-2.757 8.083a34.728 34.728 0 0 1-4.526 7.799c-1.84 2.391-4.082 4.413-6.726 6.066-2.644 1.653-5.741 2.556-9.292 2.709-3.453-.272-6.722-1.411-9.805-3.419-3.084-2.007-6.007-4.562-8.769-7.665-2.762-3.102-5.332-6.576-7.711-10.421a139.856 139.856 0 0 1-6.459-11.621 199.543 199.543 0 0 1-5.161-11.271 285.953 285.953 0 0 1-3.835-9.575c.229-1.626.89-3.134 1.984-4.526 1.094-1.392 2.366-2.386 3.814-2.983s2.923-.707 4.424-.328c1.502.379 2.797 1.469 3.884 3.27.628 1.625 1.502 3.854 2.621 6.689a181.625 181.625 0 0 0 3.914 9.112 159.747 159.747 0 0 0 4.935 9.8c1.799 3.293 3.753 6.184 5.861 8.674 2.108 2.489 4.318 4.457 6.628 5.904 2.311 1.447 4.702 1.953 7.175 1.519 3.443-2.104 5.828-4.714 7.156-7.828 1.327-3.114 1.905-6.466 1.735-10.056-.17-3.59-.89-7.293-2.16-11.107a90.68 90.68 0 0 0-4.472-11.007c-1.711-3.523-3.475-6.736-5.292-9.641a477.557 477.557 0 0 0-4.529-7.124c-.01-1.52.621-2.776 1.892-3.77a10.36 10.36 0 0 1 4.324-1.997c1.612-.337 3.246-.303 4.902.102 1.656.406 2.865 1.248 3.625 2.528 11.979 17.71 21.122 33.54 27.428 47.49 6.307 13.951 10.411 26.002 12.312 36.153 1.901 10.151 1.917 18.475.049 24.973-1.868 6.497-4.998 11.176-9.39 14.036-4.392 2.86-9.728 3.974-16.008 3.342-6.28-.632-12.893-2.972-19.837-7.022ZM357.505 119.353c-3.921-.568-7.397-2.041-10.43-4.42-3.032-2.379-5.686-5.319-7.961-8.82-2.276-3.501-4.243-7.35-5.9-11.547a115.848 115.848 0 0 1-4.205-12.74 161.398 161.398 0 0 1-2.812-12.414c-.729-3.979-1.298-7.48-1.708-10.501-.145-1.656.242-2.971 1.16-3.947.918-.976 2.077-1.622 3.478-1.94 1.4-.316 2.842-.308 4.324.024 1.482.332 2.707.936 3.675 1.811.764.738 1.518 2.452 2.263 5.143.744 2.691 1.533 5.839 2.367 9.443.833 3.604 1.743 7.37 2.728 11.3.985 3.929 2.134 7.56 3.447 10.894 1.312 3.333 2.807 6.122 4.484 8.366 1.676 2.244 3.666 3.364 5.969 3.359 3.399-.749 5.92-2.258 7.561-4.527 1.641-2.268 2.616-5.005 2.923-8.211.308-3.206.092-6.708-.647-10.508a91.107 91.107 0 0 0-3.021-11.442 134.429 134.429 0 0 0-4.201-11.013 371.754 371.754 0 0 0-4.109-9.17c-.825-1.967-.762-3.353.189-4.158.951-.805 2.267-1.216 3.947-1.233 1.681-.016 3.458.237 5.332.759 1.873.522 3.286 1.177 4.237 1.967 2.523 3.409 4.787 7.532 6.791 12.371 2.004 4.839 3.477 9.913 4.421 15.224a74.211 74.211 0 0 1 1.104 15.936c-.208 5.313-1.223 10.118-3.047 14.415-1.823 4.298-4.563 7.866-8.22 10.704-3.658 2.837-8.371 4.462-14.139 4.875ZM480.422 99.353c5.002-1.043 10.069-3.218 15.201-6.524 5.306-3.914 9.112-8.763 11.417-14.548 2.305-5.785 3.392-11.7 3.262-17.745-.131-6.046-1.414-11.765-3.849-17.158-2.436-5.393-5.741-9.612-9.917-12.657-4.175-3.044-9.133-4.48-14.874-4.305-5.742.174-12.004 2.783-18.789 7.828-.783-2.61-1.262-4.98-1.436-7.11a42.36 42.36 0 0 1-.065-6.198c.131-2.001.326-4.024.587-6.068.261-2.044.435-4.327.522-6.85-.957-3.48-2.261-5.632-3.914-6.459-1.653-.826-3.262-.74-4.828.261-1.566 1-2.87 2.719-3.914 5.154-1.044 2.436-1.479 5.132-1.305 8.09l4.567 70.458c.174 3.74 1.522 6.829 4.045 9.265 2.522 2.435 5.784 4.066 9.785 4.892 4.002.827 8.503.718 13.505-.326Zm-17.68-42.731c.348-2.132.74-3.632 1.174-4.502 2.871-5.393 5.937-9.155 9.199-11.286 3.262-2.132 6.394-3.089 9.395-2.871 3.001.217 5.784 1.413 8.35 3.588s4.611 4.893 6.133 8.155c1.522 3.262 2.392 6.828 2.609 10.7.218 3.87-.456 7.632-2.022 11.286-1.566 3.653-4.197 6.959-7.894 9.916-3.697 2.958-8.72 5.132-15.07 6.524-2.436-.087-4.437-.913-6.002-2.479-1.566-1.566-2.827-3.523-3.784-5.872-.957-2.348-1.631-4.936-2.023-7.763a60 60 0 0 1-.587-8.22c0-2.653.174-5.045.522-7.177ZM527.86 90.772c2.249 3.36 5.364 5.927 9.342 7.703 6.584 1.598 12.32 1.963 17.207 1.096 4.888-.867 9.048-2.622 12.48-5.266 3.433-2.644 6.146-5.96 8.139-9.946 1.994-3.986 3.368-8.255 4.123-12.808.755-4.552.919-9.193.493-13.921-.427-4.73-1.386-9.135-2.877-13.217-1.492-4.082-3.489-7.69-5.992-10.823s-5.389-5.382-8.657-6.748c-3.268-1.365-6.933-1.629-10.994-.79-4.062.837-8.42 3.166-13.073 6.984-2.533 2.264-4.868 5.174-7.007 8.73-2.139 3.557-3.917 7.47-5.334 11.741a63.759 63.759 0 0 0-2.87 13.156c-.496 4.5-.346 8.803.451 12.91.796 4.107 2.319 7.84 4.569 11.199Zm10.935-10.24c1.674 3.076 4.364 5.332 8.07 6.77 3.664.22 6.917-.7 9.761-2.757 2.844-2.058 5.167-4.706 6.969-7.946 1.801-3.24 3.067-6.875 3.797-10.904.729-4.03.769-7.882.118-11.558-.65-3.677-1.984-6.981-4.001-9.914-2.018-2.932-4.83-4.945-8.437-6.037-2.188-.359-4.446.416-6.773 2.325-2.327 1.91-4.414 4.441-6.262 7.595-1.849 3.155-3.335 6.688-4.461 10.601-1.125 3.913-1.622 7.76-1.49 11.541.132 3.782 1.035 7.21 2.709 10.285ZM581.483 93.992c-.968-1.297-1.514-2.487-1.637-3.57-.124-1.084.36-2.37 1.451-3.855 1.955-1.04 4.515-2.644 7.68-4.815a175.197 175.197 0 0 0 9.422-6.943 145.875 145.875 0 0 0 8.669-7.378c2.662-2.46 4.469-4.5 5.419-6.12l-10.482-24.626c-.432-1.86-.183-3.49.745-4.89a8.386 8.386 0 0 1 3.678-3.104 10.845 10.845 0 0 1 4.785-.925c1.666.054 3.092.672 4.277 1.853.846.805 1.745 2.398 2.699 4.782.954 2.384 1.952 4.85 2.992 7.396 1.041 2.547 2.102 4.804 3.183 6.772s2.172 2.938 3.272 2.91c.626-.263 1.689-.916 3.19-1.958a168.436 168.436 0 0 1 5.136-3.41c1.923-1.231 3.95-2.43 6.081-3.598 2.13-1.168 4.153-1.982 6.068-2.443 1.914-.46 3.572-.454 4.974.02 1.401.474 2.334 1.737 2.798 3.789.196 2.334-.323 4.404-1.557 6.21-1.235 1.805-2.797 3.42-4.687 4.843a43.61 43.61 0 0 1-6.239 3.891 135.94 135.94 0 0 0-6.31 3.46c-1.939 1.136-3.562 2.277-4.867 3.424-1.306 1.147-1.929 2.367-1.869 3.658a66.755 66.755 0 0 0 3.108 7.909 818.852 818.852 0 0 1 3.645 7.936 109.488 109.488 0 0 1 3.232 7.947 37.501 37.501 0 0 1 1.958 8.103c.297 2.001-.157 3.636-1.363 4.904a7.68 7.68 0 0 1-4.399 2.339c-1.727.291-3.438.086-5.134-.614-1.696-.701-2.897-1.977-3.604-3.831L617.16 78.157c-1.01.328-2.383 1.25-4.12 2.765a420.77 420.77 0 0 1-5.819 4.975 192.639 192.639 0 0 1-6.777 5.432c-2.376 1.82-4.727 3.262-7.053 4.325-2.326 1.063-4.522 1.551-6.588 1.465-2.066-.086-3.839-1.128-5.32-3.127ZM737.356 132.431c-1.152 1.692-2.617 2.648-4.395 2.868a10.18 10.18 0 0 1-5.146-.672c-1.654-.668-3.064-1.707-4.23-3.116-1.166-1.409-1.698-2.938-1.595-4.585 1.566-4.34 3.42-9.219 5.563-14.639a790.8 790.8 0 0 0 6.271-16.394 287.507 287.507 0 0 0 5.423-16.033c1.577-5.18 2.606-9.643 3.087-13.388.556-1.84 1.449-3.238 2.68-4.195 1.231-.957 2.529-1.441 3.894-1.452 1.365-.012 2.647.53 3.847 1.624 1.199 1.095 2.021 2.717 2.466 4.867l-3.119 12.25c4.421-3.28 8.651-5.043 12.69-5.287 4.039-.245 7.408.647 10.106 2.676 2.699 2.028 4.558 5.03 5.578 9.008 1.02 3.977.762 8.564-.774 13.76.715-1.306 2.166-2.69 4.351-4.153 2.186-1.462 4.763-2.79 7.731-3.983a47.957 47.957 0 0 1 9.386-2.681c3.289-.594 6.403-.697 9.342-.307 2.938.39 5.519 1.433 7.742 3.128 2.224 1.696 3.725 4.25 4.505 7.66.348 1.924.312 4.395-.111 7.414-.422 3.019-1.088 6.292-1.996 9.818a344.135 344.135 0 0 1-3.043 11.014c-1.12 3.817-2.203 7.484-3.249 11.001a239.422 239.422 0 0 0-2.723 9.876c-.77 3.067-1.191 5.618-1.262 7.653-.736 2.517-1.958 4.439-3.667 5.766-1.709 1.326-3.411 1.999-5.107 2.017-1.696.019-3.172-.625-4.428-1.929-1.255-1.305-1.854-3.306-1.796-6.003 5.276-12.129 8.787-22.156 10.535-30.081 1.748-7.925 2.249-13.868 1.503-17.828-.745-3.96-2.502-6.054-5.272-6.281-2.769-.228-6.013 1.299-9.732 4.582-3.718 3.282-7.689 8.175-11.911 14.678-4.222 6.503-8.159 14.505-11.81 24.007-1.217 1.385-2.475 2.236-3.777 2.555-1.301.318-2.557.233-3.767-.256-1.209-.488-2.321-1.336-3.334-2.543-1.014-1.207-1.8-2.627-2.36-4.26 3.663-8.371 6.319-16.047 7.966-23.027 1.648-6.981 2.447-12.732 2.398-17.255-.049-4.524-.813-7.623-2.294-9.3-1.48-1.677-3.508-1.418-6.084.778-2.576 2.196-5.583 6.563-9.022 13.101-3.439 6.538-7.126 15.721-11.06 27.547ZM823.645 166.388c.479 4.014 2.088 7.716 4.827 11.105 5.141 4.412 10.086 7.342 14.834 8.788 4.748 1.447 9.252 1.771 13.511.974 4.259-.798 8.181-2.52 11.767-5.167 3.586-2.647 6.748-5.827 9.488-9.54 2.739-3.714 4.992-7.774 6.759-12.181 1.767-4.407 2.913-8.767 3.437-13.082.524-4.314.383-8.436-.425-12.364-.808-3.927-2.358-7.242-4.65-9.942-2.292-2.7-5.438-4.599-9.437-5.696-3.999-1.097-8.939-1.001-14.819.288-3.284.868-6.686 2.401-10.207 4.598-3.52 2.198-6.881 4.878-10.083 8.04a63.835 63.835 0 0 0-8.53 10.419c-2.484 3.784-4.304 7.687-5.459 11.707-1.155 4.02-1.492 8.038-1.013 12.053Zm14.392-4.159c.096 3.5 1.468 6.732 4.118 9.695 3.164 1.859 6.48 2.518 9.948 1.975 3.468-.542 6.74-1.848 9.817-3.916 3.076-2.069 5.854-4.733 8.333-7.992 2.479-3.259 4.264-6.673 5.353-10.245 1.089-3.571 1.401-7.121.935-10.649-.466-3.529-2.058-6.599-4.776-9.21-1.787-1.313-4.15-1.647-7.09-1.002-2.94.644-5.95 1.952-9.028 3.924-3.079 1.971-6.008 4.445-8.787 7.42-2.779 2.975-4.968 6.177-6.568 9.607-1.599 3.429-2.35 6.893-2.255 10.393ZM874.602 197.163c-.558 5.36.537 10.607 3.286 15.74.673 1.267 1.687 2.783 3.042 4.548 1.355 1.765 3.174 3.492 5.456 5.182 2.283 1.69 5.117 3.148 8.502 4.372 3.385 1.225 7.473 1.963 12.264 2.214.058.064-.148.485-.62 1.261a396.91 396.91 0 0 0-1.619 2.687 356.886 356.886 0 0 0-1.673 2.822c-.507.867-.799 1.452-.877 1.756-.433 1.209-.316 2.508.35 3.898.666 1.39 1.577 2.531 2.731 3.423 1.154.892 2.422 1.39 3.802 1.493 1.381.103 2.627-.463 3.738-1.698l60.165-65.585c1.357-1.222 1.85-2.69 1.478-4.403-.373-1.713-1.137-3.278-2.295-4.693-1.158-1.416-2.44-2.515-3.846-3.297-1.407-.782-2.498-.824-3.274-.125l-17.967 18.46c-.828-3-2.248-5.877-4.259-8.631-2.012-2.754-4.133-5.175-6.364-7.263-4.643-4.246-9.697-6.836-15.16-7.77-5.464-.933-10.822-.644-16.075.867-5.253 1.511-10.158 4.026-14.716 7.544-4.557 3.518-8.235 7.591-11.034 12.218-2.799 4.626-4.477 9.62-5.035 14.98Zm26.928-19.33c-3.429 1.976-6.278 4.629-8.547 7.959-2.741 4.107-4.524 7.878-5.351 11.315-.827 3.436-.909 6.466-.245 9.087.663 2.622 1.963 4.846 3.9 6.672 1.937 1.826 4.266 3.211 6.988 4.154 2.723.944 5.713 1.47 8.972 1.579 3.259.109 6.604-.27 10.037-1.137 1.688-.466 3.302-1.305 4.844-2.518a28.718 28.718 0 0 0 4.335-4.254 56.343 56.343 0 0 0 3.829-5.204c1.206-1.846 2.377-3.632 3.515-5.359 1.925-5.011 2.566-9.304 1.922-12.88-.644-3.575-2.095-6.454-4.352-8.635-2.257-2.182-5.105-3.655-8.545-4.421-3.44-.765-6.993-.844-10.659-.235-3.665.609-7.213 1.901-10.643 3.877ZM958.761 286.09c3.176.741 6.401.761 9.673.059 3.259-1.258 4.891-2.628 4.897-4.11.007-1.481-1.363-3.113-4.109-4.897-.647-.366-1.757-.91-3.33-1.635a104.21 104.21 0 0 1-5.28-2.638c-1.947-1.035-3.906-2.287-5.877-3.756a21.355 21.355 0 0 1-5.004-5.254c-1.366-2.033-2.279-4.305-2.738-6.815-.46-2.51-.149-5.353.931-8.531 4.613 3.737 9.494 6.341 14.645 7.81 5.15 1.47 10.075 1.993 14.774 1.571 4.698-.423 8.879-1.632 12.542-3.626 3.663-1.995 6.344-4.586 8.043-7.771 1.699-3.186 2.112-6.823 1.232-10.913-.877-4.09-3.523-8.428-7.938-13.013-5.371-4.236-10.858-6.445-16.461-6.626-5.603-.182-10.928 1.05-15.975 3.696-5.048 2.645-9.607 6.414-13.678 11.306a54.922 54.922 0 0 0-9.384 16.22 26.744 26.744 0 0 0-.826 9.977 35.8 35.8 0 0 0 2.43 9.798 33.568 33.568 0 0 0 5.167 8.695c2.175 2.66 4.636 4.882 7.382 6.666a27.761 27.761 0 0 0 8.884 3.787Zm15.51-57.13a29.065 29.065 0 0 1 7.62.76c2.847 2.039 4.558 4.01 5.132 5.913.575 1.903.322 3.563-.76 4.981-1.081 1.418-2.8 2.549-5.159 3.392-2.358.844-5.016 1.228-7.973 1.155-2.957-.073-6.039-.667-9.244-1.781-3.206-1.114-6.183-2.903-8.931-5.366a23.29 23.29 0 0 1 5.371-4.763 26.39 26.39 0 0 1 6.614-3.079 28.133 28.133 0 0 1 7.33-1.212ZM991.635 307.142c-1.338 1.819-2.711 2.781-4.119 2.887-1.407.106-2.669-.343-3.785-1.347-1.116-1.005-2-2.384-2.652-4.137a11.26 11.26 0 0 1-.642-5.377l66.983-57.961c.86-1.443 1.92-2.304 3.2-2.581 1.27-.278 2.5-.189 3.68.266 1.18.455 2.26 1.161 3.23 2.116.96.955 1.59 2.009 1.89 3.16.29 1.151.18 2.285-.33 3.4-.51 1.114-1.64 2.029-3.4 2.742l-64.055 56.832Z"/></g></svg>
