<svg xmlns="http://www.w3.org/2000/svg" fill="none" viewBox="0 0 406 249"><path fill="#fff" fill-rule="evenodd" stroke="#1D877A" stroke-linecap="square" stroke-width="3" d="M268.014 27.72c.819-.865-8.528-19.508-10.098-20.67-1.57-1.161-91.275-1.354-92.754 0-.717.656 2.672 5.147 5.483 9.997 2.991 5.159 4.533 10.674 5.189 10.674 1.272 0 91.361.866 92.18 0Z" clip-rule="evenodd"/><path stroke="#000" stroke-linecap="round" stroke-width="5" d="M233.064 93.106s5.526 3.352 7.105 6.313c1.579 2.961 1.017 9.884 1.017 9.884l7.878 2.802M203.064 93.106s5.526 3.352 7.105 6.313c1.579 2.961 1.017 9.884 1.017 9.884l7.878 2.802M262.064 46.904s6.509-5.336 13.096-14.625 6.598-29.174 6.598-29.174"/><path fill="#fff" stroke="#1D877A" stroke-width="3" d="m176.412 28.675.029-.133c.12-.02.262-.04.427-.062.728-.095 1.773-.184 3.11-.266 2.667-.163 6.393-.29 10.835-.386 8.879-.191 20.56-.251 32.227-.21 11.667.04 23.309.181 32.109.392 4.402.106 8.082.229 10.696.365a67.567 67.567 0 0 1 3.22.229c.07.477.146 1.142.223 1.983.166 1.814.334 4.358.491 7.405.314 6.088.582 14.129.708 22.236.126 8.111.11 16.267-.14 22.59-.125 3.167-.308 5.843-.556 7.815-.125.989-.261 1.763-.404 2.317a4.502 4.502 0 0 1-.175.56 6.49 6.49 0 0 1-.813.222c-.751.166-1.806.328-3.147.481-2.673.306-6.349.564-10.714.771-8.722.414-20.102.622-31.513.622-11.41 0-22.829-.208-31.628-.622-4.403-.207-8.128-.465-10.861-.771-1.37-.154-2.459-.316-3.248-.483a7.649 7.649 0 0 1-.886-.232 2.34 2.34 0 0 1-.105-.04 3.584 3.584 0 0 1-.223-.574c-.167-.537-.331-1.293-.483-2.269-.304-1.943-.535-4.587-.701-7.725-.33-6.264-.389-14.352-.267-22.419.123-8.063.427-16.076.82-22.187.196-3.058.413-5.62.639-7.466.113-.927.224-1.645.33-2.143Zm.144-.544a.168.168 0 0 1 .011-.026c.001 0-.003.01-.011.026Z"/><path stroke="#000" stroke-linecap="round" stroke-width="4" d="M209.064 55.105v5M235.064 55.105v5"/><path fill="#fff" fill-rule="evenodd" stroke="#1D877A" stroke-linecap="square" stroke-width="3" d="M165.191 7.144c-2.253.941 0 69.458 0 69.458s9.894 17.824 10.9 16.398c1.007-1.427 0-12.16 0-30.231 0-18.072.973-34.614.973-34.614s-9.62-21.952-11.873-21.01Z" clip-rule="evenodd"/><path stroke="#1D877A" stroke-linecap="square" stroke-width="3" d="M171.564 16.605h90.089"/><path stroke="#000" stroke-linecap="round" stroke-width="5" d="M169.572 46.799s-6.509-5.336-13.095-14.625C149.89 22.884 149.879 3 149.879 3"/><path fill="#fff" fill-rule="evenodd" stroke="#000" stroke-width="4" d="M223.064 81.106c3.866 0 7-2.015 7-4.5 0-2.486-3.134-4.5-7-4.5s-7 2.014-7 4.5c0 2.485 3.134 4.5 7 4.5Z" clip-rule="evenodd"/><path fill="#fff" fill-rule="evenodd" stroke="#1D877A" stroke-linecap="square" stroke-width="3" d="M121.135 27.72c.819-.865-8.528-19.508-10.098-20.67-1.57-1.161-91.274-1.354-92.754 0-.717.656 2.672 5.147 5.484 9.997 2.99 5.159 4.532 10.674 5.188 10.674 1.272 0 91.361.866 92.18 0Z" clip-rule="evenodd"/><path stroke="#000" stroke-linecap="round" stroke-width="5" d="M86.186 93.106s5.525 3.352 7.104 6.313c1.58 2.961 1.017 9.884 1.017 9.884l7.879 2.802M56.185 93.106s5.526 3.352 7.105 6.313c1.58 2.961 1.017 9.884 1.017 9.884l7.879 2.802M115.186 46.904s6.508-5.336 13.095-14.625c6.587-9.289 6.598-29.174 6.598-29.174"/><path fill="#fff" stroke="#1D877A" stroke-width="3" d="m29.533 28.675.03-.133c.12-.02.261-.04.426-.062.728-.095 1.773-.184 3.11-.266 2.667-.163 6.393-.29 10.835-.386 8.879-.191 20.56-.251 32.227-.21 11.667.04 23.31.181 32.109.392 4.402.106 8.082.229 10.696.365a67.567 67.567 0 0 1 3.22.229c.071.477.146 1.142.223 1.983.166 1.814.334 4.358.492 7.405.314 6.088.581 14.129.707 22.236.126 8.111.111 16.267-.14 22.59-.125 3.167-.308 5.843-.556 7.815-.125.989-.261 1.763-.404 2.317a4.502 4.502 0 0 1-.175.56 6.49 6.49 0 0 1-.813.222c-.751.166-1.806.328-3.147.481-2.673.306-6.349.564-10.714.771-8.722.414-20.102.622-31.513.622-11.41 0-22.828-.208-31.628-.622-4.403-.207-8.128-.465-10.861-.771-1.37-.154-2.46-.316-3.248-.483a7.657 7.657 0 0 1-.886-.232 2.417 2.417 0 0 1-.105-.04 3.61 3.61 0 0 1-.223-.574c-.167-.537-.331-1.293-.483-2.269-.304-1.943-.535-4.587-.7-7.725-.331-6.264-.39-14.352-.267-22.419.122-8.063.426-16.076.819-22.187.196-3.058.413-5.62.639-7.466.113-.927.224-1.645.33-2.143Zm.144-.544a.144.144 0 0 1 .011-.026l-.01.026Z"/><path stroke="#000" stroke-linecap="round" stroke-width="4" d="M62.185 55.105v5M88.186 55.105v5"/><path fill="#fff" fill-rule="evenodd" stroke="#1D877A" stroke-linecap="square" stroke-width="3" d="M18.312 7.144c-2.253.941 0 69.458 0 69.458S28.206 94.426 29.212 93c1.007-1.427 0-12.16 0-30.231 0-18.072.974-34.614.974-34.614s-9.62-21.952-11.874-21.01Z" clip-rule="evenodd"/><path stroke="#1D877A" stroke-linecap="square" stroke-width="3" d="M24.686 16.605h90.088"/><path stroke="#000" stroke-linecap="round" stroke-width="5" d="M22.693 46.799s-6.508-5.336-13.095-14.625C3.01 22.884 3 3 3 3"/><path fill="#fff" fill-rule="evenodd" stroke="#000" stroke-width="4" d="M76.186 81.106c3.865 0 7-2.015 7-4.5 0-2.486-3.135-4.5-7-4.5-3.866 0-7 2.014-7 4.5 0 2.485 3.134 4.5 7 4.5Z" clip-rule="evenodd"/><path stroke="#979797" stroke-linecap="square" stroke-width="3" d="m319.328 169.105-9-20"/><path fill="#fff" fill-rule="evenodd" stroke="#1D877A" stroke-linecap="square" stroke-width="3" d="M390.645 32.575c.822-.879-7.917-22.919-11.803-24.293-3.886-1.374-68.124-1.374-69.61 0-.72.666 2.889 7.103 5.712 12.024 3.003 5.235 4.551 10.83 5.21 10.83 1.277 0 69.668 2.318 70.491 1.44Z" clip-rule="evenodd"/><path stroke="#000" stroke-linecap="round" stroke-width="5" d="M392.824 153.855s7.594 2.756 9.295 8.42c1.701 5.664 0 16.778 0 16.778M346.984 227.086s-5.362 3.377-6.894 6.359c-1.533 2.983-.987 9.955-.987 9.955l-7.646 2.823M361.73 227.086s5.362 3.377 6.895 6.359c1.533 2.983.987 9.955.987 9.955l7.646 2.823"/><path fill="#fff" stroke="#1D877A" stroke-width="3" d="M319.441 32.524Zm.256-.114.155-.054c.488-.16 1.236-.324 2.253-.481 2.018-.312 4.868-.56 8.303-.746 6.857-.372 15.894-.49 24.934-.41 9.038.08 18.051.355 24.854.767 3.407.206 6.234.445 8.225.706.966.127 1.695.254 2.184.375.028.41.057.973.086 1.687.064 1.537.129 3.729.195 6.487.131 5.514.262 13.266.385 22.523.244 18.513.452 43.032.55 67.675.098 24.645.086 49.409-.11 68.416-.097 9.505-.241 17.56-.439 23.439-.099 2.94-.211 5.323-.337 7.063a38.578 38.578 0 0 1-.195 2.082 9.375 9.375 0 0 1-.094.605c-.017.085-.03.138-.037.166-.025.028-.151.175-.551.397-.499.279-1.242.571-2.245.861-1.998.577-4.787 1.074-8.151 1.476-6.712.804-15.496 1.209-24.322 1.209-8.827 0-17.641-.405-24.413-1.209-3.394-.403-6.223-.9-8.269-1.478-1.026-.29-1.8-.586-2.332-.871-.496-.265-.63-.44-.645-.456l-.001-.004c-.012-.043-.072-.249-.146-.73a32.509 32.509 0 0 1-.232-2.057c-.152-1.726-.288-4.091-.41-7.014-.243-5.843-.425-13.851-.554-23.305-.258-18.905-.304-43.549-.209-68.113.096-24.563.332-49.04.638-67.61.153-9.287.323-17.09.501-22.688.089-2.8.18-5.039.272-6.631.045-.798.091-1.42.134-1.864.008-.078.015-.149.023-.212Zm71.383.303-.004-.002.004.002Zm-.532-.77-.002-.013.002.014Z"/><path stroke="#000" stroke-linecap="round" stroke-width="4" d="M345.824 156.154s7.228 4.647 11.085 4.647c3.858 0 11.085-4.647 11.085-4.647M343.984 139.105v4.5M369.494 139.105v4.5"/><path fill="#fff" fill-rule="evenodd" stroke="#1D877A" stroke-linecap="square" stroke-width="3" d="M308.863 8.335c-2.184.939 0 209.327 0 209.327s9.593 17.791 10.569 16.367c.976-1.424 0-12.137 0-30.174 0-18.038.943-174.549.943-174.549s-9.327-21.91-11.512-20.971Z" clip-rule="evenodd"/><path stroke="#1D877A" stroke-linecap="square" stroke-width="3" d="M318.052 19.605h67.103"/><path stroke="#000" stroke-linecap="round" stroke-width="5" d="M312.265 151.243s-8.263 3.072-11.944 8.029c-3.68 4.957-4.582 15.706-4.582 15.706"/></svg>
