<?xml version="1.0" standalone="no"?>
<!DOCTYPE svg PUBLIC "-//W3C//DTD SVG 20010904//EN"
 "http://www.w3.org/TR/2001/REC-SVG-20010904/DTD/svg10.dtd">
<svg version="1.0" xmlns="http://www.w3.org/2000/svg"
 width="298.000000pt" height="298.000000pt" viewBox="0 0 298.000000 298.000000"
 preserveAspectRatio="xMidYMid meet">
<metadata>
Created by potrace 1.14, written by Peter Selinger 2001-2017
</metadata>
<g transform="translate(0.000000,298.000000) scale(0.100000,-0.100000)"
fill="#000000" stroke="none">
<path d="M1460 2620 c-23 -23 -26 -34 -40 -170 -6 -58 -13 -116 -15 -130 -2
-14 -7 -54 -10 -90 -3 -36 -8 -76 -10 -90 -2 -14 -6 -50 -10 -80 -9 -86 -16
-153 -20 -180 -2 -14 -6 -54 -10 -90 -4 -36 -8 -76 -10 -90 -2 -14 -7 -50 -10
-80 -3 -30 -7 -71 -10 -90 -2 -19 -9 -80 -15 -135 -6 -55 -13 -111 -15 -125
-2 -14 -7 -53 -10 -88 -4 -35 -8 -71 -10 -80 -1 -9 -6 -51 -9 -92 -10 -107
-23 -182 -26 -147 -1 15 -3 30 -4 35 -1 4 -6 43 -10 87 -5 44 -9 87 -11 95 -2
8 -6 49 -10 90 -4 41 -8 82 -10 90 -1 8 -6 49 -10 90 -4 41 -9 82 -10 90 -2 8
-6 49 -10 90 -4 41 -9 82 -10 91 -2 8 -6 53 -10 100 -4 46 -8 86 -10 89 -1 3
-6 41 -10 84 -4 43 -8 86 -10 95 -1 9 -6 43 -9 76 -17 154 -23 171 -61 181
-60 15 -99 -18 -109 -91 -6 -46 -13 -93 -21 -150 -4 -22 -8 -51 -10 -65 -2
-14 -6 -38 -9 -55 -3 -16 -8 -52 -12 -80 -3 -27 -8 -59 -10 -70 -4 -19 -32
-210 -39 -265 -6 -41 -16 -111 -20 -128 -1 -10 -6 -39 -9 -67 -6 -42 -16 -105
-21 -125 -1 -3 -5 -39 -10 -80 l-8 -75 -13 49 c-7 27 -15 63 -17 80 -23 158
-152 826 -163 843 -27 42 -91 42 -119 0 -12 -19 -117 -401 -131 -477 -3 -14
-9 -40 -15 -57 l-11 -33 -128 0 c-122 0 -130 -1 -144 -22 -21 -30 -20 -54 4
-78 18 -18 33 -20 174 -20 132 0 157 3 175 18 17 13 33 60 67 187 24 94 48
184 52 200 8 28 9 25 21 -35 13 -71 36 -195 46 -250 3 -19 21 -118 40 -220 19
-102 36 -198 39 -215 51 -293 59 -313 113 -319 59 -7 85 31 99 144 4 36 8 67
9 70 1 3 5 30 9 60 4 30 11 78 16 105 5 28 12 75 16 105 3 30 7 57 9 60 2 3 6
30 9 60 3 30 8 66 11 80 2 14 7 42 10 63 12 87 17 117 31 212 8 55 18 120 21
145 7 61 19 71 21 18 1 -24 4 -52 6 -63 2 -11 7 -49 11 -85 3 -36 8 -76 10
-90 4 -27 11 -90 20 -180 3 -30 8 -66 10 -80 2 -14 6 -56 10 -95 3 -38 8 -81
10 -95 5 -31 12 -97 20 -175 3 -33 8 -76 10 -95 9 -62 14 -104 20 -165 3 -33
8 -73 10 -90 2 -16 7 -57 10 -90 10 -93 42 -130 101 -114 33 9 51 36 58 84 6
40 28 222 31 260 3 41 16 154 20 185 2 14 6 54 10 90 4 36 8 76 10 90 2 14 6
54 10 90 4 36 8 76 10 90 2 14 6 50 10 80 3 30 8 71 10 90 2 19 7 60 10 90 4
30 8 69 10 85 2 17 8 75 14 130 6 55 14 120 17 145 3 25 7 59 9 75 1 17 6 62
11 100 4 39 7 73 6 78 -1 4 2 7 7 7 8 0 15 -44 26 -165 3 -33 8 -71 10 -85 3
-14 7 -52 10 -85 3 -33 7 -76 10 -95 2 -19 7 -60 10 -90 4 -30 8 -66 10 -80 2
-14 6 -54 10 -90 3 -36 8 -72 10 -80 2 -8 7 -46 10 -85 6 -66 10 -102 20 -185
2 -19 7 -60 10 -90 3 -30 8 -71 10 -90 3 -19 7 -57 10 -85 7 -68 16 -145 20
-175 2 -14 6 -52 10 -85 3 -33 7 -69 10 -80 2 -11 4 -33 4 -48 1 -35 42 -77
75 -77 14 0 36 10 50 22 25 23 33 62 51 248 5 49 17 155 20 180 5 31 13 107
20 180 3 30 8 71 10 90 4 31 15 122 30 260 3 25 8 65 10 90 6 57 15 138 20
170 2 14 7 57 11 95 10 112 11 115 18 122 3 3 6 -5 7 -18 0 -13 2 -33 4 -44 3
-11 7 -40 10 -65 3 -25 10 -70 15 -100 5 -30 12 -73 15 -95 10 -76 15 -119 20
-144 2 -14 7 -46 10 -71 3 -25 10 -67 15 -95 5 -27 12 -75 16 -105 3 -30 7
-57 9 -60 2 -3 6 -32 10 -65 3 -33 8 -69 10 -80 5 -21 13 -77 21 -135 9 -71
63 -110 116 -83 29 14 35 29 63 168 9 44 20 98 25 120 6 22 33 150 61 285 28
135 53 254 56 265 2 11 7 37 10 59 8 49 10 44 68 -131 26 -78 53 -148 62 -154
17 -15 255 -20 293 -7 47 17 55 65 15 96 -20 16 -39 19 -120 18 -52 -1 -99 0
-103 3 -5 3 -39 100 -78 215 -40 122 -77 217 -88 228 -25 23 -68 23 -96 0 -19
-15 -34 -75 -106 -412 -46 -217 -83 -401 -84 -409 0 -21 -11 -6 -14 21 -8 63
-18 133 -22 152 -6 29 -13 74 -19 121 -3 22 -10 67 -15 100 -5 33 -12 83 -15
110 -4 28 -8 57 -10 65 -4 15 -33 203 -41 270 -3 19 -7 46 -9 60 -3 14 -14 88
-26 165 -22 148 -28 169 -59 185 -28 15 -55 12 -83 -10 -20 -16 -26 -32 -32
-82 -4 -35 -8 -74 -10 -88 -3 -21 -9 -70 -20 -180 -7 -62 -17 -147 -21 -170
-2 -14 -6 -55 -9 -90 -3 -36 -7 -81 -10 -100 -2 -19 -7 -53 -9 -75 -3 -22 -7
-62 -11 -90 -9 -79 -14 -126 -20 -190 -3 -33 -8 -71 -10 -85 -2 -14 -9 -73
-16 -133 -6 -59 -13 -106 -15 -104 -2 1 -5 29 -9 62 -3 33 -8 76 -10 95 -2 19
-7 58 -10 85 -3 28 -8 66 -10 85 -3 19 -7 60 -10 90 -3 30 -8 71 -10 90 -3 19
-12 98 -20 175 -9 77 -18 154 -20 170 -2 17 -6 55 -9 85 -4 30 -9 71 -11 90
-3 19 -7 62 -11 95 -3 33 -7 71 -9 85 -2 14 -6 50 -10 80 -3 30 -7 69 -9 85
-2 17 -7 59 -11 95 -4 36 -9 76 -10 90 -2 14 -6 54 -10 90 -9 93 -23 130 -52
141 -37 14 -61 11 -83 -11z"/>
</g>
</svg>
